<svg xmlns="http://www.w3.org/2000/svg" xmlns:xlink="http://www.w3.org/1999/xlink" width="512" height="512" viewBox="0 0 512 512">
  <defs>
    <linearGradient id="bg-grad" x1="85.35533905932738%" y1="85.35533905932738%" x2="14.644660940672615%" y2="14.64466094067263%">
        <stop offset="0%" stop-color="#F7EB45"/>
        <stop offset="100%" stop-color="#AEEB4B"/>
      </linearGradient>
    <clipPath id="canvas-clip">
      <rect width="512" height="512" rx="15" ry="15"/>
    </clipPath>
  </defs>
  <rect width="512" height="512" rx="15" ry="15" fill="url(#bg-grad)"  clip-path="url(#canvas-clip)"/>
  <g clip-path="url(#canvas-clip)">
    <g transform="rotate(180, 256, 256)">
      <g transform="translate(74 90) scale(16 16) translate(0 0)"><path fill="none" stroke="#111111" stroke-linecap="round" stroke-linejoin="round" stroke-width="1.5" d="M14 18V6c0-.465 0-.697-.051-.888a1.5 1.5 0 0 0-1.06-1.06C12.697 4 12.464 4 12 4s-.697 0-.888.051a1.5 1.5 0 0 0-1.06 1.06C10 5.304 10 5.536 10 6v12c0 .465 0 .698.051.888a1.5 1.5 0 0 0 1.06 1.06c.191.052.424.052.889.052s.697 0 .888-.051a1.5 1.5 0 0 0 1.06-1.06C14 18.697 14 18.464 14 18m7-10V6c0-.465 0-.697-.051-.888a1.5 1.5 0 0 0-1.06-1.06C19.697 4 19.464 4 19 4s-.698 0-.888.051a1.5 1.5 0 0 0-1.06 1.06C17 5.304 17 5.536 17 6v2c0 .465 0 .697.051.888a1.5 1.5 0 0 0 1.06 1.06c.191.052.424.052.889.052s.698 0 .888-.051a1.5 1.5 0 0 0 1.06-1.06C21 8.696 21 8.464 21 8M7 12V6c0-.465 0-.697-.051-.888a1.5 1.5 0 0 0-1.06-1.06C5.696 4 5.464 4 5 4s-.697 0-.888.051a1.5 1.5 0 0 0-1.06 1.06C3 5.304 3 5.536 3 6v6c0 .465 0 .697.051.888a1.5 1.5 0 0 0 1.06 1.06C4.304 14 4.536 14 5 14s.697 0 .888-.051a1.5 1.5 0 0 0 1.06-1.06C7 12.697 7 12.464 7 12"/></g><g transform="translate(74 93) scale(16 16) translate(0 0)"><path fill="none" stroke="#111111" stroke-linecap="round" stroke-linejoin="round" stroke-width="1.5" d="M14 18V6c0-.465 0-.697-.051-.888a1.5 1.5 0 0 0-1.06-1.06C12.697 4 12.464 4 12 4s-.697 0-.888.051a1.5 1.5 0 0 0-1.06 1.06C10 5.304 10 5.536 10 6v12c0 .465 0 .698.051.888a1.5 1.5 0 0 0 1.06 1.06c.191.052.424.052.889.052s.697 0 .888-.051a1.5 1.5 0 0 0 1.06-1.06C14 18.697 14 18.464 14 18m7-10V6c0-.465 0-.697-.051-.888a1.5 1.5 0 0 0-1.06-1.06C19.697 4 19.464 4 19 4s-.698 0-.888.051a1.5 1.5 0 0 0-1.06 1.06C17 5.304 17 5.536 17 6v2c0 .465 0 .697.051.888a1.5 1.5 0 0 0 1.06 1.06c.191.052.424.052.889.052s.698 0 .888-.051a1.5 1.5 0 0 0 1.06-1.06C21 8.696 21 8.464 21 8M7 12V6c0-.465 0-.697-.051-.888a1.5 1.5 0 0 0-1.06-1.06C5.696 4 5.464 4 5 4s-.697 0-.888.051a1.5 1.5 0 0 0-1.06 1.06C3 5.304 3 5.536 3 6v6c0 .465 0 .697.051.888a1.5 1.5 0 0 0 1.06 1.06C4.304 14 4.536 14 5 14s.697 0 .888-.051a1.5 1.5 0 0 0 1.06-1.06C7 12.697 7 12.464 7 12"/></g><g transform="translate(72 96) scale(16 16) translate(0 0)"><path fill="none" stroke="#111111" stroke-linecap="round" stroke-linejoin="round" stroke-width="1.5" d="M14 18V6c0-.465 0-.697-.051-.888a1.5 1.5 0 0 0-1.06-1.06C12.697 4 12.464 4 12 4s-.697 0-.888.051a1.5 1.5 0 0 0-1.06 1.06C10 5.304 10 5.536 10 6v12c0 .465 0 .698.051.888a1.5 1.5 0 0 0 1.06 1.06c.191.052.424.052.889.052s.697 0 .888-.051a1.5 1.5 0 0 0 1.06-1.06C14 18.697 14 18.464 14 18m7-10V6c0-.465 0-.697-.051-.888a1.5 1.5 0 0 0-1.06-1.06C19.697 4 19.464 4 19 4s-.698 0-.888.051a1.5 1.5 0 0 0-1.06 1.06C17 5.304 17 5.536 17 6v2c0 .465 0 .697.051.888a1.5 1.5 0 0 0 1.06 1.06c.191.052.424.052.889.052s.698 0 .888-.051a1.5 1.5 0 0 0 1.06-1.06C21 8.696 21 8.464 21 8M7 12V6c0-.465 0-.697-.051-.888a1.5 1.5 0 0 0-1.06-1.06C5.696 4 5.464 4 5 4s-.697 0-.888.051a1.5 1.5 0 0 0-1.06 1.06C3 5.304 3 5.536 3 6v6c0 .465 0 .697.051.888a1.5 1.5 0 0 0 1.06 1.06C4.304 14 4.536 14 5 14s.697 0 .888-.051a1.5 1.5 0 0 0 1.06-1.06C7 12.697 7 12.464 7 12"/></g><g transform="translate(70 98) scale(16 16) translate(0 0)"><path fill="none" stroke="#111111" stroke-linecap="round" stroke-linejoin="round" stroke-width="1.5" d="M14 18V6c0-.465 0-.697-.051-.888a1.5 1.5 0 0 0-1.06-1.06C12.697 4 12.464 4 12 4s-.697 0-.888.051a1.5 1.5 0 0 0-1.06 1.06C10 5.304 10 5.536 10 6v12c0 .465 0 .698.051.888a1.5 1.5 0 0 0 1.06 1.06c.191.052.424.052.889.052s.697 0 .888-.051a1.5 1.5 0 0 0 1.06-1.06C14 18.697 14 18.464 14 18m7-10V6c0-.465 0-.697-.051-.888a1.5 1.5 0 0 0-1.06-1.06C19.697 4 19.464 4 19 4s-.698 0-.888.051a1.5 1.5 0 0 0-1.06 1.06C17 5.304 17 5.536 17 6v2c0 .465 0 .697.051.888a1.5 1.5 0 0 0 1.06 1.06c.191.052.424.052.889.052s.698 0 .888-.051a1.5 1.5 0 0 0 1.06-1.06C21 8.696 21 8.464 21 8M7 12V6c0-.465 0-.697-.051-.888a1.5 1.5 0 0 0-1.06-1.06C5.696 4 5.464 4 5 4s-.697 0-.888.051a1.5 1.5 0 0 0-1.06 1.06C3 5.304 3 5.536 3 6v6c0 .465 0 .697.051.888a1.5 1.5 0 0 0 1.06 1.06C4.304 14 4.536 14 5 14s.697 0 .888-.051a1.5 1.5 0 0 0 1.06-1.06C7 12.697 7 12.464 7 12"/></g><g transform="translate(68 99) scale(16 16) translate(0 0)"><path fill="none" stroke="#111111" stroke-linecap="round" stroke-linejoin="round" stroke-width="1.5" d="M14 18V6c0-.465 0-.697-.051-.888a1.5 1.5 0 0 0-1.06-1.06C12.697 4 12.464 4 12 4s-.697 0-.888.051a1.5 1.5 0 0 0-1.06 1.06C10 5.304 10 5.536 10 6v12c0 .465 0 .698.051.888a1.5 1.5 0 0 0 1.06 1.06c.191.052.424.052.889.052s.697 0 .888-.051a1.5 1.5 0 0 0 1.06-1.06C14 18.697 14 18.464 14 18m7-10V6c0-.465 0-.697-.051-.888a1.5 1.5 0 0 0-1.06-1.06C19.697 4 19.464 4 19 4s-.698 0-.888.051a1.5 1.5 0 0 0-1.06 1.06C17 5.304 17 5.536 17 6v2c0 .465 0 .697.051.888a1.5 1.5 0 0 0 1.06 1.06c.191.052.424.052.889.052s.698 0 .888-.051a1.5 1.5 0 0 0 1.06-1.06C21 8.696 21 8.464 21 8M7 12V6c0-.465 0-.697-.051-.888a1.5 1.5 0 0 0-1.06-1.06C5.696 4 5.464 4 5 4s-.697 0-.888.051a1.5 1.5 0 0 0-1.06 1.06C3 5.304 3 5.536 3 6v6c0 .465 0 .697.051.888a1.5 1.5 0 0 0 1.06 1.06C4.304 14 4.536 14 5 14s.697 0 .888-.051a1.5 1.5 0 0 0 1.06-1.06C7 12.697 7 12.464 7 12"/></g><g transform="translate(65 100) scale(16 16) translate(0 0)"><path fill="none" stroke="#111111" stroke-linecap="round" stroke-linejoin="round" stroke-width="1.5" d="M14 18V6c0-.465 0-.697-.051-.888a1.5 1.5 0 0 0-1.06-1.06C12.697 4 12.464 4 12 4s-.697 0-.888.051a1.5 1.5 0 0 0-1.06 1.06C10 5.304 10 5.536 10 6v12c0 .465 0 .698.051.888a1.5 1.5 0 0 0 1.06 1.06c.191.052.424.052.889.052s.697 0 .888-.051a1.5 1.5 0 0 0 1.06-1.06C14 18.697 14 18.464 14 18m7-10V6c0-.465 0-.697-.051-.888a1.5 1.5 0 0 0-1.06-1.06C19.697 4 19.464 4 19 4s-.698 0-.888.051a1.5 1.5 0 0 0-1.06 1.06C17 5.304 17 5.536 17 6v2c0 .465 0 .697.051.888a1.5 1.5 0 0 0 1.06 1.06c.191.052.424.052.889.052s.698 0 .888-.051a1.5 1.5 0 0 0 1.06-1.06C21 8.696 21 8.464 21 8M7 12V6c0-.465 0-.697-.051-.888a1.5 1.5 0 0 0-1.06-1.06C5.696 4 5.464 4 5 4s-.697 0-.888.051a1.5 1.5 0 0 0-1.06 1.06C3 5.304 3 5.536 3 6v6c0 .465 0 .697.051.888a1.5 1.5 0 0 0 1.06 1.06C4.304 14 4.536 14 5 14s.697 0 .888-.051a1.5 1.5 0 0 0 1.06-1.06C7 12.697 7 12.464 7 12"/></g><g transform="translate(62 100) scale(16 16) translate(0 0)"><path fill="none" stroke="#111111" stroke-linecap="round" stroke-linejoin="round" stroke-width="1.5" d="M14 18V6c0-.465 0-.697-.051-.888a1.5 1.5 0 0 0-1.06-1.06C12.697 4 12.464 4 12 4s-.697 0-.888.051a1.5 1.5 0 0 0-1.06 1.06C10 5.304 10 5.536 10 6v12c0 .465 0 .698.051.888a1.5 1.5 0 0 0 1.06 1.06c.191.052.424.052.889.052s.697 0 .888-.051a1.5 1.5 0 0 0 1.06-1.06C14 18.697 14 18.464 14 18m7-10V6c0-.465 0-.697-.051-.888a1.5 1.5 0 0 0-1.06-1.06C19.697 4 19.464 4 19 4s-.698 0-.888.051a1.5 1.5 0 0 0-1.06 1.06C17 5.304 17 5.536 17 6v2c0 .465 0 .697.051.888a1.5 1.5 0 0 0 1.06 1.06c.191.052.424.052.889.052s.698 0 .888-.051a1.5 1.5 0 0 0 1.06-1.06C21 8.696 21 8.464 21 8M7 12V6c0-.465 0-.697-.051-.888a1.5 1.5 0 0 0-1.06-1.06C5.696 4 5.464 4 5 4s-.697 0-.888.051a1.5 1.5 0 0 0-1.06 1.06C3 5.304 3 5.536 3 6v6c0 .465 0 .697.051.888a1.5 1.5 0 0 0 1.06 1.06C4.304 14 4.536 14 5 14s.697 0 .888-.051a1.5 1.5 0 0 0 1.06-1.06C7 12.697 7 12.464 7 12"/></g><g transform="translate(59 99) scale(16 16) translate(0 0)"><path fill="none" stroke="#111111" stroke-linecap="round" stroke-linejoin="round" stroke-width="1.5" d="M14 18V6c0-.465 0-.697-.051-.888a1.5 1.5 0 0 0-1.06-1.06C12.697 4 12.464 4 12 4s-.697 0-.888.051a1.5 1.5 0 0 0-1.06 1.06C10 5.304 10 5.536 10 6v12c0 .465 0 .698.051.888a1.5 1.5 0 0 0 1.06 1.06c.191.052.424.052.889.052s.697 0 .888-.051a1.5 1.5 0 0 0 1.06-1.06C14 18.697 14 18.464 14 18m7-10V6c0-.465 0-.697-.051-.888a1.5 1.5 0 0 0-1.06-1.06C19.697 4 19.464 4 19 4s-.698 0-.888.051a1.5 1.5 0 0 0-1.06 1.06C17 5.304 17 5.536 17 6v2c0 .465 0 .697.051.888a1.5 1.5 0 0 0 1.06 1.06c.191.052.424.052.889.052s.698 0 .888-.051a1.5 1.5 0 0 0 1.06-1.06C21 8.696 21 8.464 21 8M7 12V6c0-.465 0-.697-.051-.888a1.5 1.5 0 0 0-1.06-1.06C5.696 4 5.464 4 5 4s-.697 0-.888.051a1.5 1.5 0 0 0-1.06 1.06C3 5.304 3 5.536 3 6v6c0 .465 0 .697.051.888a1.5 1.5 0 0 0 1.06 1.06C4.304 14 4.536 14 5 14s.697 0 .888-.051a1.5 1.5 0 0 0 1.06-1.06C7 12.697 7 12.464 7 12"/></g><g transform="translate(57 97) scale(16 16) translate(0 0)"><path fill="none" stroke="#111111" stroke-linecap="round" stroke-linejoin="round" stroke-width="1.5" d="M14 18V6c0-.465 0-.697-.051-.888a1.5 1.5 0 0 0-1.06-1.06C12.697 4 12.464 4 12 4s-.697 0-.888.051a1.5 1.5 0 0 0-1.06 1.06C10 5.304 10 5.536 10 6v12c0 .465 0 .698.051.888a1.5 1.5 0 0 0 1.06 1.06c.191.052.424.052.889.052s.697 0 .888-.051a1.5 1.5 0 0 0 1.06-1.06C14 18.697 14 18.464 14 18m7-10V6c0-.465 0-.697-.051-.888a1.5 1.5 0 0 0-1.06-1.06C19.697 4 19.464 4 19 4s-.698 0-.888.051a1.5 1.5 0 0 0-1.06 1.06C17 5.304 17 5.536 17 6v2c0 .465 0 .697.051.888a1.5 1.5 0 0 0 1.06 1.06c.191.052.424.052.889.052s.698 0 .888-.051a1.5 1.5 0 0 0 1.06-1.06C21 8.696 21 8.464 21 8M7 12V6c0-.465 0-.697-.051-.888a1.5 1.5 0 0 0-1.06-1.06C5.696 4 5.464 4 5 4s-.697 0-.888.051a1.5 1.5 0 0 0-1.06 1.06C3 5.304 3 5.536 3 6v6c0 .465 0 .697.051.888a1.5 1.5 0 0 0 1.06 1.06C4.304 14 4.536 14 5 14s.697 0 .888-.051a1.5 1.5 0 0 0 1.06-1.06C7 12.697 7 12.464 7 12"/></g><g transform="translate(55 94) scale(16 16) translate(0 0)"><path fill="none" stroke="#111111" stroke-linecap="round" stroke-linejoin="round" stroke-width="1.5" d="M14 18V6c0-.465 0-.697-.051-.888a1.5 1.5 0 0 0-1.06-1.06C12.697 4 12.464 4 12 4s-.697 0-.888.051a1.5 1.5 0 0 0-1.06 1.06C10 5.304 10 5.536 10 6v12c0 .465 0 .698.051.888a1.5 1.5 0 0 0 1.06 1.06c.191.052.424.052.889.052s.697 0 .888-.051a1.5 1.5 0 0 0 1.06-1.06C14 18.697 14 18.464 14 18m7-10V6c0-.465 0-.697-.051-.888a1.5 1.5 0 0 0-1.06-1.06C19.697 4 19.464 4 19 4s-.698 0-.888.051a1.5 1.5 0 0 0-1.06 1.06C17 5.304 17 5.536 17 6v2c0 .465 0 .697.051.888a1.5 1.5 0 0 0 1.06 1.06c.191.052.424.052.889.052s.698 0 .888-.051a1.5 1.5 0 0 0 1.06-1.06C21 8.696 21 8.464 21 8M7 12V6c0-.465 0-.697-.051-.888a1.5 1.5 0 0 0-1.06-1.06C5.696 4 5.464 4 5 4s-.697 0-.888.051a1.5 1.5 0 0 0-1.06 1.06C3 5.304 3 5.536 3 6v6c0 .465 0 .697.051.888a1.5 1.5 0 0 0 1.06 1.06C4.304 14 4.536 14 5 14s.697 0 .888-.051a1.5 1.5 0 0 0 1.06-1.06C7 12.697 7 12.464 7 12"/></g><g transform="translate(54 91) scale(16 16) translate(0 0)"><path fill="none" stroke="#111111" stroke-linecap="round" stroke-linejoin="round" stroke-width="1.5" d="M14 18V6c0-.465 0-.697-.051-.888a1.5 1.5 0 0 0-1.06-1.06C12.697 4 12.464 4 12 4s-.697 0-.888.051a1.5 1.5 0 0 0-1.06 1.06C10 5.304 10 5.536 10 6v12c0 .465 0 .698.051.888a1.5 1.5 0 0 0 1.06 1.06c.191.052.424.052.889.052s.697 0 .888-.051a1.5 1.5 0 0 0 1.06-1.06C14 18.697 14 18.464 14 18m7-10V6c0-.465 0-.697-.051-.888a1.5 1.5 0 0 0-1.06-1.06C19.697 4 19.464 4 19 4s-.698 0-.888.051a1.5 1.5 0 0 0-1.06 1.06C17 5.304 17 5.536 17 6v2c0 .465 0 .697.051.888a1.5 1.5 0 0 0 1.06 1.06c.191.052.424.052.889.052s.698 0 .888-.051a1.5 1.5 0 0 0 1.06-1.06C21 8.696 21 8.464 21 8M7 12V6c0-.465 0-.697-.051-.888a1.5 1.5 0 0 0-1.06-1.06C5.696 4 5.464 4 5 4s-.697 0-.888.051a1.5 1.5 0 0 0-1.06 1.06C3 5.304 3 5.536 3 6v6c0 .465 0 .697.051.888a1.5 1.5 0 0 0 1.06 1.06C4.304 14 4.536 14 5 14s.697 0 .888-.051a1.5 1.5 0 0 0 1.06-1.06C7 12.697 7 12.464 7 12"/></g><g transform="translate(54 89) scale(16 16) translate(0 0)"><path fill="none" stroke="#111111" stroke-linecap="round" stroke-linejoin="round" stroke-width="1.5" d="M14 18V6c0-.465 0-.697-.051-.888a1.5 1.5 0 0 0-1.06-1.06C12.697 4 12.464 4 12 4s-.697 0-.888.051a1.5 1.5 0 0 0-1.06 1.06C10 5.304 10 5.536 10 6v12c0 .465 0 .698.051.888a1.5 1.5 0 0 0 1.06 1.06c.191.052.424.052.889.052s.697 0 .888-.051a1.5 1.5 0 0 0 1.06-1.06C14 18.697 14 18.464 14 18m7-10V6c0-.465 0-.697-.051-.888a1.5 1.5 0 0 0-1.06-1.06C19.697 4 19.464 4 19 4s-.698 0-.888.051a1.5 1.5 0 0 0-1.06 1.06C17 5.304 17 5.536 17 6v2c0 .465 0 .697.051.888a1.5 1.5 0 0 0 1.06 1.06c.191.052.424.052.889.052s.698 0 .888-.051a1.5 1.5 0 0 0 1.06-1.06C21 8.696 21 8.464 21 8M7 12V6c0-.465 0-.697-.051-.888a1.5 1.5 0 0 0-1.06-1.06C5.696 4 5.464 4 5 4s-.697 0-.888.051a1.5 1.5 0 0 0-1.06 1.06C3 5.304 3 5.536 3 6v6c0 .465 0 .697.051.888a1.5 1.5 0 0 0 1.06 1.06C4.304 14 4.536 14 5 14s.697 0 .888-.051a1.5 1.5 0 0 0 1.06-1.06C7 12.697 7 12.464 7 12"/></g><g transform="translate(55 86) scale(16 16) translate(0 0)"><path fill="none" stroke="#111111" stroke-linecap="round" stroke-linejoin="round" stroke-width="1.5" d="M14 18V6c0-.465 0-.697-.051-.888a1.5 1.5 0 0 0-1.06-1.06C12.697 4 12.464 4 12 4s-.697 0-.888.051a1.5 1.5 0 0 0-1.06 1.06C10 5.304 10 5.536 10 6v12c0 .465 0 .698.051.888a1.5 1.5 0 0 0 1.06 1.06c.191.052.424.052.889.052s.697 0 .888-.051a1.5 1.5 0 0 0 1.06-1.06C14 18.697 14 18.464 14 18m7-10V6c0-.465 0-.697-.051-.888a1.5 1.5 0 0 0-1.06-1.06C19.697 4 19.464 4 19 4s-.698 0-.888.051a1.5 1.5 0 0 0-1.06 1.06C17 5.304 17 5.536 17 6v2c0 .465 0 .697.051.888a1.5 1.5 0 0 0 1.06 1.06c.191.052.424.052.889.052s.698 0 .888-.051a1.5 1.5 0 0 0 1.06-1.06C21 8.696 21 8.464 21 8M7 12V6c0-.465 0-.697-.051-.888a1.5 1.5 0 0 0-1.06-1.06C5.696 4 5.464 4 5 4s-.697 0-.888.051a1.5 1.5 0 0 0-1.06 1.06C3 5.304 3 5.536 3 6v6c0 .465 0 .697.051.888a1.5 1.5 0 0 0 1.06 1.06C4.304 14 4.536 14 5 14s.697 0 .888-.051a1.5 1.5 0 0 0 1.06-1.06C7 12.697 7 12.464 7 12"/></g><g transform="translate(57 83) scale(16 16) translate(0 0)"><path fill="none" stroke="#111111" stroke-linecap="round" stroke-linejoin="round" stroke-width="1.5" d="M14 18V6c0-.465 0-.697-.051-.888a1.5 1.5 0 0 0-1.06-1.06C12.697 4 12.464 4 12 4s-.697 0-.888.051a1.5 1.5 0 0 0-1.06 1.06C10 5.304 10 5.536 10 6v12c0 .465 0 .698.051.888a1.5 1.5 0 0 0 1.06 1.06c.191.052.424.052.889.052s.697 0 .888-.051a1.5 1.5 0 0 0 1.06-1.06C14 18.697 14 18.464 14 18m7-10V6c0-.465 0-.697-.051-.888a1.5 1.5 0 0 0-1.06-1.06C19.697 4 19.464 4 19 4s-.698 0-.888.051a1.5 1.5 0 0 0-1.06 1.06C17 5.304 17 5.536 17 6v2c0 .465 0 .697.051.888a1.5 1.5 0 0 0 1.06 1.06c.191.052.424.052.889.052s.698 0 .888-.051a1.5 1.5 0 0 0 1.06-1.06C21 8.696 21 8.464 21 8M7 12V6c0-.465 0-.697-.051-.888a1.5 1.5 0 0 0-1.06-1.06C5.696 4 5.464 4 5 4s-.697 0-.888.051a1.5 1.5 0 0 0-1.06 1.06C3 5.304 3 5.536 3 6v6c0 .465 0 .697.051.888a1.5 1.5 0 0 0 1.06 1.06C4.304 14 4.536 14 5 14s.697 0 .888-.051a1.5 1.5 0 0 0 1.06-1.06C7 12.697 7 12.464 7 12"/></g><g transform="translate(59 81) scale(16 16) translate(0 0)"><path fill="none" stroke="#111111" stroke-linecap="round" stroke-linejoin="round" stroke-width="1.5" d="M14 18V6c0-.465 0-.697-.051-.888a1.5 1.5 0 0 0-1.06-1.06C12.697 4 12.464 4 12 4s-.697 0-.888.051a1.5 1.5 0 0 0-1.06 1.06C10 5.304 10 5.536 10 6v12c0 .465 0 .698.051.888a1.5 1.5 0 0 0 1.06 1.06c.191.052.424.052.889.052s.697 0 .888-.051a1.5 1.5 0 0 0 1.06-1.06C14 18.697 14 18.464 14 18m7-10V6c0-.465 0-.697-.051-.888a1.5 1.5 0 0 0-1.06-1.06C19.697 4 19.464 4 19 4s-.698 0-.888.051a1.5 1.5 0 0 0-1.06 1.06C17 5.304 17 5.536 17 6v2c0 .465 0 .697.051.888a1.5 1.5 0 0 0 1.06 1.06c.191.052.424.052.889.052s.698 0 .888-.051a1.5 1.5 0 0 0 1.06-1.06C21 8.696 21 8.464 21 8M7 12V6c0-.465 0-.697-.051-.888a1.5 1.5 0 0 0-1.06-1.06C5.696 4 5.464 4 5 4s-.697 0-.888.051a1.5 1.5 0 0 0-1.06 1.06C3 5.304 3 5.536 3 6v6c0 .465 0 .697.051.888a1.5 1.5 0 0 0 1.06 1.06C4.304 14 4.536 14 5 14s.697 0 .888-.051a1.5 1.5 0 0 0 1.06-1.06C7 12.697 7 12.464 7 12"/></g><g transform="translate(62 80) scale(16 16) translate(0 0)"><path fill="none" stroke="#111111" stroke-linecap="round" stroke-linejoin="round" stroke-width="1.5" d="M14 18V6c0-.465 0-.697-.051-.888a1.5 1.5 0 0 0-1.06-1.06C12.697 4 12.464 4 12 4s-.697 0-.888.051a1.5 1.5 0 0 0-1.06 1.06C10 5.304 10 5.536 10 6v12c0 .465 0 .698.051.888a1.5 1.5 0 0 0 1.06 1.06c.191.052.424.052.889.052s.697 0 .888-.051a1.5 1.5 0 0 0 1.06-1.06C14 18.697 14 18.464 14 18m7-10V6c0-.465 0-.697-.051-.888a1.5 1.5 0 0 0-1.06-1.06C19.697 4 19.464 4 19 4s-.698 0-.888.051a1.5 1.5 0 0 0-1.06 1.06C17 5.304 17 5.536 17 6v2c0 .465 0 .697.051.888a1.5 1.5 0 0 0 1.06 1.06c.191.052.424.052.889.052s.698 0 .888-.051a1.5 1.5 0 0 0 1.06-1.06C21 8.696 21 8.464 21 8M7 12V6c0-.465 0-.697-.051-.888a1.5 1.5 0 0 0-1.06-1.06C5.696 4 5.464 4 5 4s-.697 0-.888.051a1.5 1.5 0 0 0-1.06 1.06C3 5.304 3 5.536 3 6v6c0 .465 0 .697.051.888a1.5 1.5 0 0 0 1.06 1.06C4.304 14 4.536 14 5 14s.697 0 .888-.051a1.5 1.5 0 0 0 1.06-1.06C7 12.697 7 12.464 7 12"/></g><g transform="translate(65 80) scale(16 16) translate(0 0)"><path fill="none" stroke="#111111" stroke-linecap="round" stroke-linejoin="round" stroke-width="1.5" d="M14 18V6c0-.465 0-.697-.051-.888a1.5 1.5 0 0 0-1.06-1.06C12.697 4 12.464 4 12 4s-.697 0-.888.051a1.5 1.5 0 0 0-1.06 1.06C10 5.304 10 5.536 10 6v12c0 .465 0 .698.051.888a1.5 1.5 0 0 0 1.06 1.06c.191.052.424.052.889.052s.697 0 .888-.051a1.5 1.5 0 0 0 1.06-1.06C14 18.697 14 18.464 14 18m7-10V6c0-.465 0-.697-.051-.888a1.5 1.5 0 0 0-1.06-1.06C19.697 4 19.464 4 19 4s-.698 0-.888.051a1.5 1.5 0 0 0-1.06 1.06C17 5.304 17 5.536 17 6v2c0 .465 0 .697.051.888a1.5 1.5 0 0 0 1.06 1.06c.191.052.424.052.889.052s.698 0 .888-.051a1.5 1.5 0 0 0 1.06-1.06C21 8.696 21 8.464 21 8M7 12V6c0-.465 0-.697-.051-.888a1.5 1.5 0 0 0-1.06-1.06C5.696 4 5.464 4 5 4s-.697 0-.888.051a1.5 1.5 0 0 0-1.06 1.06C3 5.304 3 5.536 3 6v6c0 .465 0 .697.051.888a1.5 1.5 0 0 0 1.06 1.06C4.304 14 4.536 14 5 14s.697 0 .888-.051a1.5 1.5 0 0 0 1.06-1.06C7 12.697 7 12.464 7 12"/></g><g transform="translate(68 81) scale(16 16) translate(0 0)"><path fill="none" stroke="#111111" stroke-linecap="round" stroke-linejoin="round" stroke-width="1.5" d="M14 18V6c0-.465 0-.697-.051-.888a1.5 1.5 0 0 0-1.06-1.06C12.697 4 12.464 4 12 4s-.697 0-.888.051a1.5 1.5 0 0 0-1.06 1.06C10 5.304 10 5.536 10 6v12c0 .465 0 .698.051.888a1.5 1.5 0 0 0 1.06 1.06c.191.052.424.052.889.052s.697 0 .888-.051a1.5 1.5 0 0 0 1.06-1.06C14 18.697 14 18.464 14 18m7-10V6c0-.465 0-.697-.051-.888a1.5 1.5 0 0 0-1.06-1.06C19.697 4 19.464 4 19 4s-.698 0-.888.051a1.5 1.5 0 0 0-1.06 1.06C17 5.304 17 5.536 17 6v2c0 .465 0 .697.051.888a1.5 1.5 0 0 0 1.06 1.06c.191.052.424.052.889.052s.698 0 .888-.051a1.5 1.5 0 0 0 1.06-1.06C21 8.696 21 8.464 21 8M7 12V6c0-.465 0-.697-.051-.888a1.5 1.5 0 0 0-1.06-1.06C5.696 4 5.464 4 5 4s-.697 0-.888.051a1.5 1.5 0 0 0-1.06 1.06C3 5.304 3 5.536 3 6v6c0 .465 0 .697.051.888a1.5 1.5 0 0 0 1.06 1.06C4.304 14 4.536 14 5 14s.697 0 .888-.051a1.5 1.5 0 0 0 1.06-1.06C7 12.697 7 12.464 7 12"/></g><g transform="translate(70 82) scale(16 16) translate(0 0)"><path fill="none" stroke="#111111" stroke-linecap="round" stroke-linejoin="round" stroke-width="1.5" d="M14 18V6c0-.465 0-.697-.051-.888a1.5 1.5 0 0 0-1.06-1.06C12.697 4 12.464 4 12 4s-.697 0-.888.051a1.5 1.5 0 0 0-1.06 1.06C10 5.304 10 5.536 10 6v12c0 .465 0 .698.051.888a1.5 1.5 0 0 0 1.06 1.06c.191.052.424.052.889.052s.697 0 .888-.051a1.5 1.5 0 0 0 1.06-1.06C14 18.697 14 18.464 14 18m7-10V6c0-.465 0-.697-.051-.888a1.5 1.5 0 0 0-1.06-1.06C19.697 4 19.464 4 19 4s-.698 0-.888.051a1.5 1.5 0 0 0-1.06 1.06C17 5.304 17 5.536 17 6v2c0 .465 0 .697.051.888a1.5 1.5 0 0 0 1.06 1.06c.191.052.424.052.889.052s.698 0 .888-.051a1.5 1.5 0 0 0 1.06-1.06C21 8.696 21 8.464 21 8M7 12V6c0-.465 0-.697-.051-.888a1.5 1.5 0 0 0-1.06-1.06C5.696 4 5.464 4 5 4s-.697 0-.888.051a1.5 1.5 0 0 0-1.06 1.06C3 5.304 3 5.536 3 6v6c0 .465 0 .697.051.888a1.5 1.5 0 0 0 1.06 1.06C4.304 14 4.536 14 5 14s.697 0 .888-.051a1.5 1.5 0 0 0 1.06-1.06C7 12.697 7 12.464 7 12"/></g><g transform="translate(72 84) scale(16 16) translate(0 0)"><path fill="none" stroke="#111111" stroke-linecap="round" stroke-linejoin="round" stroke-width="1.5" d="M14 18V6c0-.465 0-.697-.051-.888a1.5 1.5 0 0 0-1.06-1.06C12.697 4 12.464 4 12 4s-.697 0-.888.051a1.5 1.5 0 0 0-1.06 1.06C10 5.304 10 5.536 10 6v12c0 .465 0 .698.051.888a1.5 1.5 0 0 0 1.06 1.06c.191.052.424.052.889.052s.697 0 .888-.051a1.5 1.5 0 0 0 1.06-1.06C14 18.697 14 18.464 14 18m7-10V6c0-.465 0-.697-.051-.888a1.5 1.5 0 0 0-1.06-1.06C19.697 4 19.464 4 19 4s-.698 0-.888.051a1.5 1.5 0 0 0-1.06 1.06C17 5.304 17 5.536 17 6v2c0 .465 0 .697.051.888a1.5 1.5 0 0 0 1.06 1.06c.191.052.424.052.889.052s.698 0 .888-.051a1.5 1.5 0 0 0 1.06-1.06C21 8.696 21 8.464 21 8M7 12V6c0-.465 0-.697-.051-.888a1.5 1.5 0 0 0-1.06-1.06C5.696 4 5.464 4 5 4s-.697 0-.888.051a1.5 1.5 0 0 0-1.06 1.06C3 5.304 3 5.536 3 6v6c0 .465 0 .697.051.888a1.5 1.5 0 0 0 1.06 1.06C4.304 14 4.536 14 5 14s.697 0 .888-.051a1.5 1.5 0 0 0 1.06-1.06C7 12.697 7 12.464 7 12"/></g><g transform="translate(74 87) scale(16 16) translate(0 0)"><path fill="none" stroke="#111111" stroke-linecap="round" stroke-linejoin="round" stroke-width="1.5" d="M14 18V6c0-.465 0-.697-.051-.888a1.5 1.5 0 0 0-1.06-1.06C12.697 4 12.464 4 12 4s-.697 0-.888.051a1.5 1.5 0 0 0-1.06 1.06C10 5.304 10 5.536 10 6v12c0 .465 0 .698.051.888a1.5 1.5 0 0 0 1.06 1.06c.191.052.424.052.889.052s.697 0 .888-.051a1.5 1.5 0 0 0 1.06-1.06C14 18.697 14 18.464 14 18m7-10V6c0-.465 0-.697-.051-.888a1.5 1.5 0 0 0-1.06-1.06C19.697 4 19.464 4 19 4s-.698 0-.888.051a1.5 1.5 0 0 0-1.06 1.06C17 5.304 17 5.536 17 6v2c0 .465 0 .697.051.888a1.5 1.5 0 0 0 1.06 1.06c.191.052.424.052.889.052s.698 0 .888-.051a1.5 1.5 0 0 0 1.06-1.06C21 8.696 21 8.464 21 8M7 12V6c0-.465 0-.697-.051-.888a1.5 1.5 0 0 0-1.06-1.06C5.696 4 5.464 4 5 4s-.697 0-.888.051a1.5 1.5 0 0 0-1.06 1.06C3 5.304 3 5.536 3 6v6c0 .465 0 .697.051.888a1.5 1.5 0 0 0 1.06 1.06C4.304 14 4.536 14 5 14s.697 0 .888-.051a1.5 1.5 0 0 0 1.06-1.06C7 12.697 7 12.464 7 12"/></g><g transform="translate(71 90) scale(16 16) translate(0 0)"><path fill="none" stroke="#111111" stroke-linecap="round" stroke-linejoin="round" stroke-width="1.5" d="M14 18V6c0-.465 0-.697-.051-.888a1.5 1.5 0 0 0-1.06-1.06C12.697 4 12.464 4 12 4s-.697 0-.888.051a1.5 1.5 0 0 0-1.06 1.06C10 5.304 10 5.536 10 6v12c0 .465 0 .698.051.888a1.5 1.5 0 0 0 1.06 1.06c.191.052.424.052.889.052s.697 0 .888-.051a1.5 1.5 0 0 0 1.06-1.06C14 18.697 14 18.464 14 18m7-10V6c0-.465 0-.697-.051-.888a1.5 1.5 0 0 0-1.06-1.06C19.697 4 19.464 4 19 4s-.698 0-.888.051a1.5 1.5 0 0 0-1.06 1.06C17 5.304 17 5.536 17 6v2c0 .465 0 .697.051.888a1.5 1.5 0 0 0 1.06 1.06c.191.052.424.052.889.052s.698 0 .888-.051a1.5 1.5 0 0 0 1.06-1.06C21 8.696 21 8.464 21 8M7 12V6c0-.465 0-.697-.051-.888a1.5 1.5 0 0 0-1.06-1.06C5.696 4 5.464 4 5 4s-.697 0-.888.051a1.5 1.5 0 0 0-1.06 1.06C3 5.304 3 5.536 3 6v6c0 .465 0 .697.051.888a1.5 1.5 0 0 0 1.06 1.06C4.304 14 4.536 14 5 14s.697 0 .888-.051a1.5 1.5 0 0 0 1.06-1.06C7 12.697 7 12.464 7 12"/></g><g transform="translate(70 93) scale(16 16) translate(0 0)"><path fill="none" stroke="#111111" stroke-linecap="round" stroke-linejoin="round" stroke-width="1.5" d="M14 18V6c0-.465 0-.697-.051-.888a1.5 1.5 0 0 0-1.06-1.06C12.697 4 12.464 4 12 4s-.697 0-.888.051a1.5 1.5 0 0 0-1.06 1.06C10 5.304 10 5.536 10 6v12c0 .465 0 .698.051.888a1.5 1.5 0 0 0 1.06 1.06c.191.052.424.052.889.052s.697 0 .888-.051a1.5 1.5 0 0 0 1.06-1.06C14 18.697 14 18.464 14 18m7-10V6c0-.465 0-.697-.051-.888a1.5 1.5 0 0 0-1.06-1.06C19.697 4 19.464 4 19 4s-.698 0-.888.051a1.5 1.5 0 0 0-1.06 1.06C17 5.304 17 5.536 17 6v2c0 .465 0 .697.051.888a1.5 1.5 0 0 0 1.06 1.06c.191.052.424.052.889.052s.698 0 .888-.051a1.5 1.5 0 0 0 1.06-1.06C21 8.696 21 8.464 21 8M7 12V6c0-.465 0-.697-.051-.888a1.5 1.5 0 0 0-1.06-1.06C5.696 4 5.464 4 5 4s-.697 0-.888.051a1.5 1.5 0 0 0-1.06 1.06C3 5.304 3 5.536 3 6v6c0 .465 0 .697.051.888a1.5 1.5 0 0 0 1.06 1.06C4.304 14 4.536 14 5 14s.697 0 .888-.051a1.5 1.5 0 0 0 1.06-1.06C7 12.697 7 12.464 7 12"/></g><g transform="translate(69 95) scale(16 16) translate(0 0)"><path fill="none" stroke="#111111" stroke-linecap="round" stroke-linejoin="round" stroke-width="1.5" d="M14 18V6c0-.465 0-.697-.051-.888a1.5 1.5 0 0 0-1.06-1.06C12.697 4 12.464 4 12 4s-.697 0-.888.051a1.5 1.5 0 0 0-1.06 1.06C10 5.304 10 5.536 10 6v12c0 .465 0 .698.051.888a1.5 1.5 0 0 0 1.06 1.06c.191.052.424.052.889.052s.697 0 .888-.051a1.5 1.5 0 0 0 1.06-1.06C14 18.697 14 18.464 14 18m7-10V6c0-.465 0-.697-.051-.888a1.5 1.5 0 0 0-1.06-1.06C19.697 4 19.464 4 19 4s-.698 0-.888.051a1.5 1.5 0 0 0-1.06 1.06C17 5.304 17 5.536 17 6v2c0 .465 0 .697.051.888a1.5 1.5 0 0 0 1.06 1.06c.191.052.424.052.889.052s.698 0 .888-.051a1.5 1.5 0 0 0 1.06-1.06C21 8.696 21 8.464 21 8M7 12V6c0-.465 0-.697-.051-.888a1.5 1.5 0 0 0-1.06-1.06C5.696 4 5.464 4 5 4s-.697 0-.888.051a1.5 1.5 0 0 0-1.06 1.06C3 5.304 3 5.536 3 6v6c0 .465 0 .697.051.888a1.5 1.5 0 0 0 1.06 1.06C4.304 14 4.536 14 5 14s.697 0 .888-.051a1.5 1.5 0 0 0 1.06-1.06C7 12.697 7 12.464 7 12"/></g><g transform="translate(66 97) scale(16 16) translate(0 0)"><path fill="none" stroke="#111111" stroke-linecap="round" stroke-linejoin="round" stroke-width="1.5" d="M14 18V6c0-.465 0-.697-.051-.888a1.5 1.5 0 0 0-1.06-1.06C12.697 4 12.464 4 12 4s-.697 0-.888.051a1.5 1.5 0 0 0-1.06 1.06C10 5.304 10 5.536 10 6v12c0 .465 0 .698.051.888a1.5 1.5 0 0 0 1.06 1.06c.191.052.424.052.889.052s.697 0 .888-.051a1.5 1.5 0 0 0 1.06-1.06C14 18.697 14 18.464 14 18m7-10V6c0-.465 0-.697-.051-.888a1.5 1.5 0 0 0-1.06-1.06C19.697 4 19.464 4 19 4s-.698 0-.888.051a1.5 1.5 0 0 0-1.06 1.06C17 5.304 17 5.536 17 6v2c0 .465 0 .697.051.888a1.5 1.5 0 0 0 1.06 1.06c.191.052.424.052.889.052s.698 0 .888-.051a1.5 1.5 0 0 0 1.06-1.06C21 8.696 21 8.464 21 8M7 12V6c0-.465 0-.697-.051-.888a1.5 1.5 0 0 0-1.06-1.06C5.696 4 5.464 4 5 4s-.697 0-.888.051a1.5 1.5 0 0 0-1.06 1.06C3 5.304 3 5.536 3 6v6c0 .465 0 .697.051.888a1.5 1.5 0 0 0 1.06 1.06C4.304 14 4.536 14 5 14s.697 0 .888-.051a1.5 1.5 0 0 0 1.06-1.06C7 12.697 7 12.464 7 12"/></g><g transform="translate(63 97) scale(16 16) translate(0 0)"><path fill="none" stroke="#111111" stroke-linecap="round" stroke-linejoin="round" stroke-width="1.5" d="M14 18V6c0-.465 0-.697-.051-.888a1.5 1.5 0 0 0-1.06-1.06C12.697 4 12.464 4 12 4s-.697 0-.888.051a1.5 1.5 0 0 0-1.06 1.06C10 5.304 10 5.536 10 6v12c0 .465 0 .698.051.888a1.5 1.5 0 0 0 1.06 1.06c.191.052.424.052.889.052s.697 0 .888-.051a1.5 1.5 0 0 0 1.06-1.06C14 18.697 14 18.464 14 18m7-10V6c0-.465 0-.697-.051-.888a1.5 1.5 0 0 0-1.06-1.06C19.697 4 19.464 4 19 4s-.698 0-.888.051a1.5 1.5 0 0 0-1.06 1.06C17 5.304 17 5.536 17 6v2c0 .465 0 .697.051.888a1.5 1.5 0 0 0 1.06 1.06c.191.052.424.052.889.052s.698 0 .888-.051a1.5 1.5 0 0 0 1.06-1.06C21 8.696 21 8.464 21 8M7 12V6c0-.465 0-.697-.051-.888a1.5 1.5 0 0 0-1.06-1.06C5.696 4 5.464 4 5 4s-.697 0-.888.051a1.5 1.5 0 0 0-1.06 1.06C3 5.304 3 5.536 3 6v6c0 .465 0 .697.051.888a1.5 1.5 0 0 0 1.06 1.06C4.304 14 4.536 14 5 14s.697 0 .888-.051a1.5 1.5 0 0 0 1.06-1.06C7 12.697 7 12.464 7 12"/></g><g transform="translate(61 96) scale(16 16) translate(0 0)"><path fill="none" stroke="#111111" stroke-linecap="round" stroke-linejoin="round" stroke-width="1.5" d="M14 18V6c0-.465 0-.697-.051-.888a1.5 1.5 0 0 0-1.06-1.06C12.697 4 12.464 4 12 4s-.697 0-.888.051a1.5 1.5 0 0 0-1.06 1.06C10 5.304 10 5.536 10 6v12c0 .465 0 .698.051.888a1.5 1.5 0 0 0 1.06 1.06c.191.052.424.052.889.052s.697 0 .888-.051a1.5 1.5 0 0 0 1.06-1.06C14 18.697 14 18.464 14 18m7-10V6c0-.465 0-.697-.051-.888a1.5 1.5 0 0 0-1.06-1.06C19.697 4 19.464 4 19 4s-.698 0-.888.051a1.5 1.5 0 0 0-1.06 1.06C17 5.304 17 5.536 17 6v2c0 .465 0 .697.051.888a1.5 1.5 0 0 0 1.06 1.06c.191.052.424.052.889.052s.698 0 .888-.051a1.5 1.5 0 0 0 1.06-1.06C21 8.696 21 8.464 21 8M7 12V6c0-.465 0-.697-.051-.888a1.5 1.5 0 0 0-1.06-1.06C5.696 4 5.464 4 5 4s-.697 0-.888.051a1.5 1.5 0 0 0-1.06 1.06C3 5.304 3 5.536 3 6v6c0 .465 0 .697.051.888a1.5 1.5 0 0 0 1.06 1.06C4.304 14 4.536 14 5 14s.697 0 .888-.051a1.5 1.5 0 0 0 1.06-1.06C7 12.697 7 12.464 7 12"/></g><g transform="translate(58 94) scale(16 16) translate(0 0)"><path fill="none" stroke="#111111" stroke-linecap="round" stroke-linejoin="round" stroke-width="1.5" d="M14 18V6c0-.465 0-.697-.051-.888a1.5 1.5 0 0 0-1.06-1.06C12.697 4 12.464 4 12 4s-.697 0-.888.051a1.5 1.5 0 0 0-1.06 1.06C10 5.304 10 5.536 10 6v12c0 .465 0 .698.051.888a1.5 1.5 0 0 0 1.06 1.06c.191.052.424.052.889.052s.697 0 .888-.051a1.5 1.5 0 0 0 1.06-1.06C14 18.697 14 18.464 14 18m7-10V6c0-.465 0-.697-.051-.888a1.5 1.5 0 0 0-1.06-1.06C19.697 4 19.464 4 19 4s-.698 0-.888.051a1.5 1.5 0 0 0-1.06 1.06C17 5.304 17 5.536 17 6v2c0 .465 0 .697.051.888a1.5 1.5 0 0 0 1.06 1.06c.191.052.424.052.889.052s.698 0 .888-.051a1.5 1.5 0 0 0 1.06-1.06C21 8.696 21 8.464 21 8M7 12V6c0-.465 0-.697-.051-.888a1.5 1.5 0 0 0-1.06-1.06C5.696 4 5.464 4 5 4s-.697 0-.888.051a1.5 1.5 0 0 0-1.06 1.06C3 5.304 3 5.536 3 6v6c0 .465 0 .697.051.888a1.5 1.5 0 0 0 1.06 1.06C4.304 14 4.536 14 5 14s.697 0 .888-.051a1.5 1.5 0 0 0 1.06-1.06C7 12.697 7 12.464 7 12"/></g><g transform="translate(57 91) scale(16 16) translate(0 0)"><path fill="none" stroke="#111111" stroke-linecap="round" stroke-linejoin="round" stroke-width="1.5" d="M14 18V6c0-.465 0-.697-.051-.888a1.5 1.5 0 0 0-1.06-1.06C12.697 4 12.464 4 12 4s-.697 0-.888.051a1.5 1.5 0 0 0-1.06 1.06C10 5.304 10 5.536 10 6v12c0 .465 0 .698.051.888a1.5 1.5 0 0 0 1.06 1.06c.191.052.424.052.889.052s.697 0 .888-.051a1.5 1.5 0 0 0 1.06-1.06C14 18.697 14 18.464 14 18m7-10V6c0-.465 0-.697-.051-.888a1.5 1.5 0 0 0-1.06-1.06C19.697 4 19.464 4 19 4s-.698 0-.888.051a1.5 1.5 0 0 0-1.06 1.06C17 5.304 17 5.536 17 6v2c0 .465 0 .697.051.888a1.5 1.5 0 0 0 1.06 1.06c.191.052.424.052.889.052s.698 0 .888-.051a1.5 1.5 0 0 0 1.06-1.06C21 8.696 21 8.464 21 8M7 12V6c0-.465 0-.697-.051-.888a1.5 1.5 0 0 0-1.06-1.06C5.696 4 5.464 4 5 4s-.697 0-.888.051a1.5 1.5 0 0 0-1.06 1.06C3 5.304 3 5.536 3 6v6c0 .465 0 .697.051.888a1.5 1.5 0 0 0 1.06 1.06C4.304 14 4.536 14 5 14s.697 0 .888-.051a1.5 1.5 0 0 0 1.06-1.06C7 12.697 7 12.464 7 12"/></g><g transform="translate(57 89) scale(16 16) translate(0 0)"><path fill="none" stroke="#111111" stroke-linecap="round" stroke-linejoin="round" stroke-width="1.5" d="M14 18V6c0-.465 0-.697-.051-.888a1.5 1.5 0 0 0-1.06-1.06C12.697 4 12.464 4 12 4s-.697 0-.888.051a1.5 1.5 0 0 0-1.06 1.06C10 5.304 10 5.536 10 6v12c0 .465 0 .698.051.888a1.5 1.5 0 0 0 1.06 1.06c.191.052.424.052.889.052s.697 0 .888-.051a1.5 1.5 0 0 0 1.06-1.06C14 18.697 14 18.464 14 18m7-10V6c0-.465 0-.697-.051-.888a1.5 1.5 0 0 0-1.06-1.06C19.697 4 19.464 4 19 4s-.698 0-.888.051a1.5 1.5 0 0 0-1.06 1.06C17 5.304 17 5.536 17 6v2c0 .465 0 .697.051.888a1.5 1.5 0 0 0 1.06 1.06c.191.052.424.052.889.052s.698 0 .888-.051a1.5 1.5 0 0 0 1.06-1.06C21 8.696 21 8.464 21 8M7 12V6c0-.465 0-.697-.051-.888a1.5 1.5 0 0 0-1.06-1.06C5.696 4 5.464 4 5 4s-.697 0-.888.051a1.5 1.5 0 0 0-1.06 1.06C3 5.304 3 5.536 3 6v6c0 .465 0 .697.051.888a1.5 1.5 0 0 0 1.06 1.06C4.304 14 4.536 14 5 14s.697 0 .888-.051a1.5 1.5 0 0 0 1.06-1.06C7 12.697 7 12.464 7 12"/></g><g transform="translate(58 86) scale(16 16) translate(0 0)"><path fill="none" stroke="#111111" stroke-linecap="round" stroke-linejoin="round" stroke-width="1.5" d="M14 18V6c0-.465 0-.697-.051-.888a1.5 1.5 0 0 0-1.06-1.06C12.697 4 12.464 4 12 4s-.697 0-.888.051a1.5 1.5 0 0 0-1.06 1.06C10 5.304 10 5.536 10 6v12c0 .465 0 .698.051.888a1.5 1.5 0 0 0 1.06 1.06c.191.052.424.052.889.052s.697 0 .888-.051a1.5 1.5 0 0 0 1.06-1.06C14 18.697 14 18.464 14 18m7-10V6c0-.465 0-.697-.051-.888a1.5 1.5 0 0 0-1.06-1.06C19.697 4 19.464 4 19 4s-.698 0-.888.051a1.5 1.5 0 0 0-1.06 1.06C17 5.304 17 5.536 17 6v2c0 .465 0 .697.051.888a1.5 1.5 0 0 0 1.06 1.06c.191.052.424.052.889.052s.698 0 .888-.051a1.5 1.5 0 0 0 1.06-1.06C21 8.696 21 8.464 21 8M7 12V6c0-.465 0-.697-.051-.888a1.5 1.5 0 0 0-1.06-1.06C5.696 4 5.464 4 5 4s-.697 0-.888.051a1.5 1.5 0 0 0-1.06 1.06C3 5.304 3 5.536 3 6v6c0 .465 0 .697.051.888a1.5 1.5 0 0 0 1.06 1.06C4.304 14 4.536 14 5 14s.697 0 .888-.051a1.5 1.5 0 0 0 1.06-1.06C7 12.697 7 12.464 7 12"/></g><g transform="translate(60 84) scale(16 16) translate(0 0)"><path fill="none" stroke="#111111" stroke-linecap="round" stroke-linejoin="round" stroke-width="1.5" d="M14 18V6c0-.465 0-.697-.051-.888a1.5 1.5 0 0 0-1.06-1.06C12.697 4 12.464 4 12 4s-.697 0-.888.051a1.5 1.5 0 0 0-1.06 1.06C10 5.304 10 5.536 10 6v12c0 .465 0 .698.051.888a1.5 1.5 0 0 0 1.06 1.06c.191.052.424.052.889.052s.697 0 .888-.051a1.5 1.5 0 0 0 1.06-1.06C14 18.697 14 18.464 14 18m7-10V6c0-.465 0-.697-.051-.888a1.5 1.5 0 0 0-1.06-1.06C19.697 4 19.464 4 19 4s-.698 0-.888.051a1.5 1.5 0 0 0-1.06 1.06C17 5.304 17 5.536 17 6v2c0 .465 0 .697.051.888a1.5 1.5 0 0 0 1.06 1.06c.191.052.424.052.889.052s.698 0 .888-.051a1.5 1.5 0 0 0 1.06-1.06C21 8.696 21 8.464 21 8M7 12V6c0-.465 0-.697-.051-.888a1.5 1.5 0 0 0-1.06-1.06C5.696 4 5.464 4 5 4s-.697 0-.888.051a1.5 1.5 0 0 0-1.06 1.06C3 5.304 3 5.536 3 6v6c0 .465 0 .697.051.888a1.5 1.5 0 0 0 1.06 1.06C4.304 14 4.536 14 5 14s.697 0 .888-.051a1.5 1.5 0 0 0 1.06-1.06C7 12.697 7 12.464 7 12"/></g><g transform="translate(63 83) scale(16 16) translate(0 0)"><path fill="none" stroke="#111111" stroke-linecap="round" stroke-linejoin="round" stroke-width="1.5" d="M14 18V6c0-.465 0-.697-.051-.888a1.5 1.5 0 0 0-1.06-1.06C12.697 4 12.464 4 12 4s-.697 0-.888.051a1.5 1.5 0 0 0-1.06 1.06C10 5.304 10 5.536 10 6v12c0 .465 0 .698.051.888a1.5 1.5 0 0 0 1.06 1.06c.191.052.424.052.889.052s.697 0 .888-.051a1.5 1.5 0 0 0 1.06-1.06C14 18.697 14 18.464 14 18m7-10V6c0-.465 0-.697-.051-.888a1.5 1.5 0 0 0-1.06-1.06C19.697 4 19.464 4 19 4s-.698 0-.888.051a1.5 1.5 0 0 0-1.06 1.06C17 5.304 17 5.536 17 6v2c0 .465 0 .697.051.888a1.5 1.5 0 0 0 1.06 1.06c.191.052.424.052.889.052s.698 0 .888-.051a1.5 1.5 0 0 0 1.06-1.06C21 8.696 21 8.464 21 8M7 12V6c0-.465 0-.697-.051-.888a1.5 1.5 0 0 0-1.06-1.06C5.696 4 5.464 4 5 4s-.697 0-.888.051a1.5 1.5 0 0 0-1.06 1.06C3 5.304 3 5.536 3 6v6c0 .465 0 .697.051.888a1.5 1.5 0 0 0 1.06 1.06C4.304 14 4.536 14 5 14s.697 0 .888-.051a1.5 1.5 0 0 0 1.06-1.06C7 12.697 7 12.464 7 12"/></g><g transform="translate(66 83) scale(16 16) translate(0 0)"><path fill="none" stroke="#111111" stroke-linecap="round" stroke-linejoin="round" stroke-width="1.5" d="M14 18V6c0-.465 0-.697-.051-.888a1.5 1.5 0 0 0-1.06-1.06C12.697 4 12.464 4 12 4s-.697 0-.888.051a1.5 1.5 0 0 0-1.06 1.06C10 5.304 10 5.536 10 6v12c0 .465 0 .698.051.888a1.5 1.5 0 0 0 1.06 1.06c.191.052.424.052.889.052s.697 0 .888-.051a1.5 1.5 0 0 0 1.06-1.06C14 18.697 14 18.464 14 18m7-10V6c0-.465 0-.697-.051-.888a1.5 1.5 0 0 0-1.06-1.06C19.697 4 19.464 4 19 4s-.698 0-.888.051a1.5 1.5 0 0 0-1.06 1.06C17 5.304 17 5.536 17 6v2c0 .465 0 .697.051.888a1.5 1.5 0 0 0 1.06 1.06c.191.052.424.052.889.052s.698 0 .888-.051a1.5 1.5 0 0 0 1.06-1.06C21 8.696 21 8.464 21 8M7 12V6c0-.465 0-.697-.051-.888a1.5 1.5 0 0 0-1.06-1.06C5.696 4 5.464 4 5 4s-.697 0-.888.051a1.5 1.5 0 0 0-1.06 1.06C3 5.304 3 5.536 3 6v6c0 .465 0 .697.051.888a1.5 1.5 0 0 0 1.06 1.06C4.304 14 4.536 14 5 14s.697 0 .888-.051a1.5 1.5 0 0 0 1.06-1.06C7 12.697 7 12.464 7 12"/></g><g transform="translate(69 85) scale(16 16) translate(0 0)"><path fill="none" stroke="#111111" stroke-linecap="round" stroke-linejoin="round" stroke-width="1.5" d="M14 18V6c0-.465 0-.697-.051-.888a1.5 1.5 0 0 0-1.06-1.06C12.697 4 12.464 4 12 4s-.697 0-.888.051a1.5 1.5 0 0 0-1.06 1.06C10 5.304 10 5.536 10 6v12c0 .465 0 .698.051.888a1.5 1.5 0 0 0 1.06 1.06c.191.052.424.052.889.052s.697 0 .888-.051a1.5 1.5 0 0 0 1.06-1.06C14 18.697 14 18.464 14 18m7-10V6c0-.465 0-.697-.051-.888a1.5 1.5 0 0 0-1.06-1.06C19.697 4 19.464 4 19 4s-.698 0-.888.051a1.5 1.5 0 0 0-1.06 1.06C17 5.304 17 5.536 17 6v2c0 .465 0 .697.051.888a1.5 1.5 0 0 0 1.06 1.06c.191.052.424.052.889.052s.698 0 .888-.051a1.5 1.5 0 0 0 1.06-1.06C21 8.696 21 8.464 21 8M7 12V6c0-.465 0-.697-.051-.888a1.5 1.5 0 0 0-1.06-1.06C5.696 4 5.464 4 5 4s-.697 0-.888.051a1.5 1.5 0 0 0-1.06 1.06C3 5.304 3 5.536 3 6v6c0 .465 0 .697.051.888a1.5 1.5 0 0 0 1.06 1.06C4.304 14 4.536 14 5 14s.697 0 .888-.051a1.5 1.5 0 0 0 1.06-1.06C7 12.697 7 12.464 7 12"/></g><g transform="translate(70 87) scale(16 16) translate(0 0)"><path fill="none" stroke="#111111" stroke-linecap="round" stroke-linejoin="round" stroke-width="1.5" d="M14 18V6c0-.465 0-.697-.051-.888a1.5 1.5 0 0 0-1.06-1.06C12.697 4 12.464 4 12 4s-.697 0-.888.051a1.5 1.5 0 0 0-1.06 1.06C10 5.304 10 5.536 10 6v12c0 .465 0 .698.051.888a1.5 1.5 0 0 0 1.06 1.06c.191.052.424.052.889.052s.697 0 .888-.051a1.5 1.5 0 0 0 1.06-1.06C14 18.697 14 18.464 14 18m7-10V6c0-.465 0-.697-.051-.888a1.5 1.5 0 0 0-1.06-1.06C19.697 4 19.464 4 19 4s-.698 0-.888.051a1.5 1.5 0 0 0-1.06 1.06C17 5.304 17 5.536 17 6v2c0 .465 0 .697.051.888a1.5 1.5 0 0 0 1.06 1.06c.191.052.424.052.889.052s.698 0 .888-.051a1.5 1.5 0 0 0 1.06-1.06C21 8.696 21 8.464 21 8M7 12V6c0-.465 0-.697-.051-.888a1.5 1.5 0 0 0-1.06-1.06C5.696 4 5.464 4 5 4s-.697 0-.888.051a1.5 1.5 0 0 0-1.06 1.06C3 5.304 3 5.536 3 6v6c0 .465 0 .697.051.888a1.5 1.5 0 0 0 1.06 1.06C4.304 14 4.536 14 5 14s.697 0 .888-.051a1.5 1.5 0 0 0 1.06-1.06C7 12.697 7 12.464 7 12"/></g><g transform="translate(67 90) scale(16 16) translate(0 0)"><path fill="none" stroke="#111111" stroke-linecap="round" stroke-linejoin="round" stroke-width="1.5" d="M14 18V6c0-.465 0-.697-.051-.888a1.5 1.5 0 0 0-1.06-1.06C12.697 4 12.464 4 12 4s-.697 0-.888.051a1.5 1.5 0 0 0-1.06 1.06C10 5.304 10 5.536 10 6v12c0 .465 0 .698.051.888a1.5 1.5 0 0 0 1.06 1.06c.191.052.424.052.889.052s.697 0 .888-.051a1.5 1.5 0 0 0 1.06-1.06C14 18.697 14 18.464 14 18m7-10V6c0-.465 0-.697-.051-.888a1.5 1.5 0 0 0-1.06-1.06C19.697 4 19.464 4 19 4s-.698 0-.888.051a1.5 1.5 0 0 0-1.06 1.06C17 5.304 17 5.536 17 6v2c0 .465 0 .697.051.888a1.5 1.5 0 0 0 1.06 1.06c.191.052.424.052.889.052s.698 0 .888-.051a1.5 1.5 0 0 0 1.06-1.06C21 8.696 21 8.464 21 8M7 12V6c0-.465 0-.697-.051-.888a1.5 1.5 0 0 0-1.06-1.06C5.696 4 5.464 4 5 4s-.697 0-.888.051a1.5 1.5 0 0 0-1.06 1.06C3 5.304 3 5.536 3 6v6c0 .465 0 .697.051.888a1.5 1.5 0 0 0 1.06 1.06C4.304 14 4.536 14 5 14s.697 0 .888-.051a1.5 1.5 0 0 0 1.06-1.06C7 12.697 7 12.464 7 12"/></g><g transform="translate(67 91) scale(16 16) translate(0 0)"><path fill="none" stroke="#111111" stroke-linecap="round" stroke-linejoin="round" stroke-width="1.5" d="M14 18V6c0-.465 0-.697-.051-.888a1.5 1.5 0 0 0-1.06-1.06C12.697 4 12.464 4 12 4s-.697 0-.888.051a1.5 1.5 0 0 0-1.06 1.06C10 5.304 10 5.536 10 6v12c0 .465 0 .698.051.888a1.5 1.5 0 0 0 1.06 1.06c.191.052.424.052.889.052s.697 0 .888-.051a1.5 1.5 0 0 0 1.06-1.06C14 18.697 14 18.464 14 18m7-10V6c0-.465 0-.697-.051-.888a1.5 1.5 0 0 0-1.06-1.06C19.697 4 19.464 4 19 4s-.698 0-.888.051a1.5 1.5 0 0 0-1.06 1.06C17 5.304 17 5.536 17 6v2c0 .465 0 .697.051.888a1.5 1.5 0 0 0 1.06 1.06c.191.052.424.052.889.052s.698 0 .888-.051a1.5 1.5 0 0 0 1.06-1.06C21 8.696 21 8.464 21 8M7 12V6c0-.465 0-.697-.051-.888a1.5 1.5 0 0 0-1.06-1.06C5.696 4 5.464 4 5 4s-.697 0-.888.051a1.5 1.5 0 0 0-1.06 1.06C3 5.304 3 5.536 3 6v6c0 .465 0 .697.051.888a1.5 1.5 0 0 0 1.06 1.06C4.304 14 4.536 14 5 14s.697 0 .888-.051a1.5 1.5 0 0 0 1.06-1.06C7 12.697 7 12.464 7 12"/></g><g transform="translate(66 93) scale(16 16) translate(0 0)"><path fill="none" stroke="#111111" stroke-linecap="round" stroke-linejoin="round" stroke-width="1.5" d="M14 18V6c0-.465 0-.697-.051-.888a1.5 1.5 0 0 0-1.06-1.06C12.697 4 12.464 4 12 4s-.697 0-.888.051a1.5 1.5 0 0 0-1.06 1.06C10 5.304 10 5.536 10 6v12c0 .465 0 .698.051.888a1.5 1.5 0 0 0 1.06 1.06c.191.052.424.052.889.052s.697 0 .888-.051a1.5 1.5 0 0 0 1.06-1.06C14 18.697 14 18.464 14 18m7-10V6c0-.465 0-.697-.051-.888a1.5 1.5 0 0 0-1.06-1.06C19.697 4 19.464 4 19 4s-.698 0-.888.051a1.5 1.5 0 0 0-1.06 1.06C17 5.304 17 5.536 17 6v2c0 .465 0 .697.051.888a1.5 1.5 0 0 0 1.06 1.06c.191.052.424.052.889.052s.698 0 .888-.051a1.5 1.5 0 0 0 1.06-1.06C21 8.696 21 8.464 21 8M7 12V6c0-.465 0-.697-.051-.888a1.5 1.5 0 0 0-1.06-1.06C5.696 4 5.464 4 5 4s-.697 0-.888.051a1.5 1.5 0 0 0-1.06 1.06C3 5.304 3 5.536 3 6v6c0 .465 0 .697.051.888a1.5 1.5 0 0 0 1.06 1.06C4.304 14 4.536 14 5 14s.697 0 .888-.051a1.5 1.5 0 0 0 1.06-1.06C7 12.697 7 12.464 7 12"/></g><g transform="translate(64 93) scale(16 16) translate(0 0)"><path fill="none" stroke="#111111" stroke-linecap="round" stroke-linejoin="round" stroke-width="1.5" d="M14 18V6c0-.465 0-.697-.051-.888a1.5 1.5 0 0 0-1.06-1.06C12.697 4 12.464 4 12 4s-.697 0-.888.051a1.5 1.5 0 0 0-1.06 1.06C10 5.304 10 5.536 10 6v12c0 .465 0 .698.051.888a1.5 1.5 0 0 0 1.06 1.06c.191.052.424.052.889.052s.697 0 .888-.051a1.5 1.5 0 0 0 1.06-1.06C14 18.697 14 18.464 14 18m7-10V6c0-.465 0-.697-.051-.888a1.5 1.5 0 0 0-1.06-1.06C19.697 4 19.464 4 19 4s-.698 0-.888.051a1.5 1.5 0 0 0-1.06 1.06C17 5.304 17 5.536 17 6v2c0 .465 0 .697.051.888a1.5 1.5 0 0 0 1.06 1.06c.191.052.424.052.889.052s.698 0 .888-.051a1.5 1.5 0 0 0 1.06-1.06C21 8.696 21 8.464 21 8M7 12V6c0-.465 0-.697-.051-.888a1.5 1.5 0 0 0-1.06-1.06C5.696 4 5.464 4 5 4s-.697 0-.888.051a1.5 1.5 0 0 0-1.06 1.06C3 5.304 3 5.536 3 6v6c0 .465 0 .697.051.888a1.5 1.5 0 0 0 1.06 1.06C4.304 14 4.536 14 5 14s.697 0 .888-.051a1.5 1.5 0 0 0 1.06-1.06C7 12.697 7 12.464 7 12"/></g><g transform="translate(63 93) scale(16 16) translate(0 0)"><path fill="none" stroke="#111111" stroke-linecap="round" stroke-linejoin="round" stroke-width="1.5" d="M14 18V6c0-.465 0-.697-.051-.888a1.5 1.5 0 0 0-1.06-1.06C12.697 4 12.464 4 12 4s-.697 0-.888.051a1.5 1.5 0 0 0-1.06 1.06C10 5.304 10 5.536 10 6v12c0 .465 0 .698.051.888a1.5 1.5 0 0 0 1.06 1.06c.191.052.424.052.889.052s.697 0 .888-.051a1.5 1.5 0 0 0 1.06-1.06C14 18.697 14 18.464 14 18m7-10V6c0-.465 0-.697-.051-.888a1.5 1.5 0 0 0-1.06-1.06C19.697 4 19.464 4 19 4s-.698 0-.888.051a1.5 1.5 0 0 0-1.06 1.06C17 5.304 17 5.536 17 6v2c0 .465 0 .697.051.888a1.5 1.5 0 0 0 1.06 1.06c.191.052.424.052.889.052s.698 0 .888-.051a1.5 1.5 0 0 0 1.06-1.06C21 8.696 21 8.464 21 8M7 12V6c0-.465 0-.697-.051-.888a1.5 1.5 0 0 0-1.06-1.06C5.696 4 5.464 4 5 4s-.697 0-.888.051a1.5 1.5 0 0 0-1.06 1.06C3 5.304 3 5.536 3 6v6c0 .465 0 .697.051.888a1.5 1.5 0 0 0 1.06 1.06C4.304 14 4.536 14 5 14s.697 0 .888-.051a1.5 1.5 0 0 0 1.06-1.06C7 12.697 7 12.464 7 12"/></g><g transform="translate(61 91) scale(16 16) translate(0 0)"><path fill="none" stroke="#111111" stroke-linecap="round" stroke-linejoin="round" stroke-width="1.5" d="M14 18V6c0-.465 0-.697-.051-.888a1.5 1.5 0 0 0-1.06-1.06C12.697 4 12.464 4 12 4s-.697 0-.888.051a1.5 1.5 0 0 0-1.06 1.06C10 5.304 10 5.536 10 6v12c0 .465 0 .698.051.888a1.5 1.5 0 0 0 1.06 1.06c.191.052.424.052.889.052s.697 0 .888-.051a1.5 1.5 0 0 0 1.06-1.06C14 18.697 14 18.464 14 18m7-10V6c0-.465 0-.697-.051-.888a1.5 1.5 0 0 0-1.06-1.06C19.697 4 19.464 4 19 4s-.698 0-.888.051a1.5 1.5 0 0 0-1.06 1.06C17 5.304 17 5.536 17 6v2c0 .465 0 .697.051.888a1.5 1.5 0 0 0 1.06 1.06c.191.052.424.052.889.052s.698 0 .888-.051a1.5 1.5 0 0 0 1.06-1.06C21 8.696 21 8.464 21 8M7 12V6c0-.465 0-.697-.051-.888a1.5 1.5 0 0 0-1.06-1.06C5.696 4 5.464 4 5 4s-.697 0-.888.051a1.5 1.5 0 0 0-1.06 1.06C3 5.304 3 5.536 3 6v6c0 .465 0 .697.051.888a1.5 1.5 0 0 0 1.06 1.06C4.304 14 4.536 14 5 14s.697 0 .888-.051a1.5 1.5 0 0 0 1.06-1.06C7 12.697 7 12.464 7 12"/></g><g transform="translate(61 90) scale(16 16) translate(0 0)"><path fill="none" stroke="#111111" stroke-linecap="round" stroke-linejoin="round" stroke-width="1.5" d="M14 18V6c0-.465 0-.697-.051-.888a1.5 1.5 0 0 0-1.06-1.06C12.697 4 12.464 4 12 4s-.697 0-.888.051a1.5 1.5 0 0 0-1.06 1.06C10 5.304 10 5.536 10 6v12c0 .465 0 .698.051.888a1.5 1.5 0 0 0 1.06 1.06c.191.052.424.052.889.052s.697 0 .888-.051a1.5 1.5 0 0 0 1.06-1.06C14 18.697 14 18.464 14 18m7-10V6c0-.465 0-.697-.051-.888a1.5 1.5 0 0 0-1.06-1.06C19.697 4 19.464 4 19 4s-.698 0-.888.051a1.5 1.5 0 0 0-1.06 1.06C17 5.304 17 5.536 17 6v2c0 .465 0 .697.051.888a1.5 1.5 0 0 0 1.06 1.06c.191.052.424.052.889.052s.698 0 .888-.051a1.5 1.5 0 0 0 1.06-1.06C21 8.696 21 8.464 21 8M7 12V6c0-.465 0-.697-.051-.888a1.5 1.5 0 0 0-1.06-1.06C5.696 4 5.464 4 5 4s-.697 0-.888.051a1.5 1.5 0 0 0-1.06 1.06C3 5.304 3 5.536 3 6v6c0 .465 0 .697.051.888a1.5 1.5 0 0 0 1.06 1.06C4.304 14 4.536 14 5 14s.697 0 .888-.051a1.5 1.5 0 0 0 1.06-1.06C7 12.697 7 12.464 7 12"/></g><g transform="translate(61 88) scale(16 16) translate(0 0)"><path fill="none" stroke="#111111" stroke-linecap="round" stroke-linejoin="round" stroke-width="1.5" d="M14 18V6c0-.465 0-.697-.051-.888a1.5 1.5 0 0 0-1.06-1.06C12.697 4 12.464 4 12 4s-.697 0-.888.051a1.5 1.5 0 0 0-1.06 1.06C10 5.304 10 5.536 10 6v12c0 .465 0 .698.051.888a1.5 1.5 0 0 0 1.06 1.06c.191.052.424.052.889.052s.697 0 .888-.051a1.5 1.5 0 0 0 1.06-1.06C14 18.697 14 18.464 14 18m7-10V6c0-.465 0-.697-.051-.888a1.5 1.5 0 0 0-1.06-1.06C19.697 4 19.464 4 19 4s-.698 0-.888.051a1.5 1.5 0 0 0-1.06 1.06C17 5.304 17 5.536 17 6v2c0 .465 0 .697.051.888a1.5 1.5 0 0 0 1.06 1.06c.191.052.424.052.889.052s.698 0 .888-.051a1.5 1.5 0 0 0 1.06-1.06C21 8.696 21 8.464 21 8M7 12V6c0-.465 0-.697-.051-.888a1.5 1.5 0 0 0-1.06-1.06C5.696 4 5.464 4 5 4s-.697 0-.888.051a1.5 1.5 0 0 0-1.06 1.06C3 5.304 3 5.536 3 6v6c0 .465 0 .697.051.888a1.5 1.5 0 0 0 1.06 1.06C4.304 14 4.536 14 5 14s.697 0 .888-.051a1.5 1.5 0 0 0 1.06-1.06C7 12.697 7 12.464 7 12"/></g><g transform="translate(62 87) scale(16 16) translate(0 0)"><path fill="none" stroke="#111111" stroke-linecap="round" stroke-linejoin="round" stroke-width="1.5" d="M14 18V6c0-.465 0-.697-.051-.888a1.5 1.5 0 0 0-1.06-1.06C12.697 4 12.464 4 12 4s-.697 0-.888.051a1.5 1.5 0 0 0-1.06 1.06C10 5.304 10 5.536 10 6v12c0 .465 0 .698.051.888a1.5 1.5 0 0 0 1.06 1.06c.191.052.424.052.889.052s.697 0 .888-.051a1.5 1.5 0 0 0 1.06-1.06C14 18.697 14 18.464 14 18m7-10V6c0-.465 0-.697-.051-.888a1.5 1.5 0 0 0-1.06-1.06C19.697 4 19.464 4 19 4s-.698 0-.888.051a1.5 1.5 0 0 0-1.06 1.06C17 5.304 17 5.536 17 6v2c0 .465 0 .697.051.888a1.5 1.5 0 0 0 1.06 1.06c.191.052.424.052.889.052s.698 0 .888-.051a1.5 1.5 0 0 0 1.06-1.06C21 8.696 21 8.464 21 8M7 12V6c0-.465 0-.697-.051-.888a1.5 1.5 0 0 0-1.06-1.06C5.696 4 5.464 4 5 4s-.697 0-.888.051a1.5 1.5 0 0 0-1.06 1.06C3 5.304 3 5.536 3 6v6c0 .465 0 .697.051.888a1.5 1.5 0 0 0 1.06 1.06C4.304 14 4.536 14 5 14s.697 0 .888-.051a1.5 1.5 0 0 0 1.06-1.06C7 12.697 7 12.464 7 12"/></g><g transform="translate(64 87) scale(16 16) translate(0 0)"><path fill="none" stroke="#111111" stroke-linecap="round" stroke-linejoin="round" stroke-width="1.5" d="M14 18V6c0-.465 0-.697-.051-.888a1.5 1.5 0 0 0-1.06-1.06C12.697 4 12.464 4 12 4s-.697 0-.888.051a1.5 1.5 0 0 0-1.06 1.06C10 5.304 10 5.536 10 6v12c0 .465 0 .698.051.888a1.5 1.5 0 0 0 1.06 1.06c.191.052.424.052.889.052s.697 0 .888-.051a1.5 1.5 0 0 0 1.06-1.06C14 18.697 14 18.464 14 18m7-10V6c0-.465 0-.697-.051-.888a1.5 1.5 0 0 0-1.06-1.06C19.697 4 19.464 4 19 4s-.698 0-.888.051a1.5 1.5 0 0 0-1.06 1.06C17 5.304 17 5.536 17 6v2c0 .465 0 .697.051.888a1.5 1.5 0 0 0 1.06 1.06c.191.052.424.052.889.052s.698 0 .888-.051a1.5 1.5 0 0 0 1.06-1.06C21 8.696 21 8.464 21 8M7 12V6c0-.465 0-.697-.051-.888a1.5 1.5 0 0 0-1.06-1.06C5.696 4 5.464 4 5 4s-.697 0-.888.051a1.5 1.5 0 0 0-1.06 1.06C3 5.304 3 5.536 3 6v6c0 .465 0 .697.051.888a1.5 1.5 0 0 0 1.06 1.06C4.304 14 4.536 14 5 14s.697 0 .888-.051a1.5 1.5 0 0 0 1.06-1.06C7 12.697 7 12.464 7 12"/></g><g transform="translate(66 87) scale(16 16) translate(0 0)"><path fill="none" stroke="#111111" stroke-linecap="round" stroke-linejoin="round" stroke-width="1.5" d="M14 18V6c0-.465 0-.697-.051-.888a1.5 1.5 0 0 0-1.06-1.06C12.697 4 12.464 4 12 4s-.697 0-.888.051a1.5 1.5 0 0 0-1.06 1.06C10 5.304 10 5.536 10 6v12c0 .465 0 .698.051.888a1.5 1.5 0 0 0 1.06 1.06c.191.052.424.052.889.052s.697 0 .888-.051a1.5 1.5 0 0 0 1.06-1.06C14 18.697 14 18.464 14 18m7-10V6c0-.465 0-.697-.051-.888a1.5 1.5 0 0 0-1.06-1.06C19.697 4 19.464 4 19 4s-.698 0-.888.051a1.5 1.5 0 0 0-1.06 1.06C17 5.304 17 5.536 17 6v2c0 .465 0 .697.051.888a1.5 1.5 0 0 0 1.06 1.06c.191.052.424.052.889.052s.698 0 .888-.051a1.5 1.5 0 0 0 1.06-1.06C21 8.696 21 8.464 21 8M7 12V6c0-.465 0-.697-.051-.888a1.5 1.5 0 0 0-1.06-1.06C5.696 4 5.464 4 5 4s-.697 0-.888.051a1.5 1.5 0 0 0-1.06 1.06C3 5.304 3 5.536 3 6v6c0 .465 0 .697.051.888a1.5 1.5 0 0 0 1.06 1.06C4.304 14 4.536 14 5 14s.697 0 .888-.051a1.5 1.5 0 0 0 1.06-1.06C7 12.697 7 12.464 7 12"/></g><g transform="translate(67 88) scale(16 16) translate(0 0)"><path fill="none" stroke="#111111" stroke-linecap="round" stroke-linejoin="round" stroke-width="1.5" d="M14 18V6c0-.465 0-.697-.051-.888a1.5 1.5 0 0 0-1.06-1.06C12.697 4 12.464 4 12 4s-.697 0-.888.051a1.5 1.5 0 0 0-1.06 1.06C10 5.304 10 5.536 10 6v12c0 .465 0 .698.051.888a1.5 1.5 0 0 0 1.06 1.06c.191.052.424.052.889.052s.697 0 .888-.051a1.5 1.5 0 0 0 1.06-1.06C14 18.697 14 18.464 14 18m7-10V6c0-.465 0-.697-.051-.888a1.5 1.5 0 0 0-1.06-1.06C19.697 4 19.464 4 19 4s-.698 0-.888.051a1.5 1.5 0 0 0-1.06 1.06C17 5.304 17 5.536 17 6v2c0 .465 0 .697.051.888a1.5 1.5 0 0 0 1.06 1.06c.191.052.424.052.889.052s.698 0 .888-.051a1.5 1.5 0 0 0 1.06-1.06C21 8.696 21 8.464 21 8M7 12V6c0-.465 0-.697-.051-.888a1.5 1.5 0 0 0-1.06-1.06C5.696 4 5.464 4 5 4s-.697 0-.888.051a1.5 1.5 0 0 0-1.06 1.06C3 5.304 3 5.536 3 6v6c0 .465 0 .697.051.888a1.5 1.5 0 0 0 1.06 1.06C4.304 14 4.536 14 5 14s.697 0 .888-.051a1.5 1.5 0 0 0 1.06-1.06C7 12.697 7 12.464 7 12"/></g>
      <g transform="translate(64 90) scale(16 16) translate(0 0)"><path fill="none" stroke="#FFFFFF" stroke-linecap="round" stroke-linejoin="round" stroke-width="1.5" d="M14 18V6c0-.465 0-.697-.051-.888a1.5 1.5 0 0 0-1.06-1.06C12.697 4 12.464 4 12 4s-.697 0-.888.051a1.5 1.5 0 0 0-1.06 1.06C10 5.304 10 5.536 10 6v12c0 .465 0 .698.051.888a1.5 1.5 0 0 0 1.06 1.06c.191.052.424.052.889.052s.697 0 .888-.051a1.5 1.5 0 0 0 1.06-1.06C14 18.697 14 18.464 14 18m7-10V6c0-.465 0-.697-.051-.888a1.5 1.5 0 0 0-1.06-1.06C19.697 4 19.464 4 19 4s-.698 0-.888.051a1.5 1.5 0 0 0-1.06 1.06C17 5.304 17 5.536 17 6v2c0 .465 0 .697.051.888a1.5 1.5 0 0 0 1.06 1.06c.191.052.424.052.889.052s.698 0 .888-.051a1.5 1.5 0 0 0 1.06-1.06C21 8.696 21 8.464 21 8M7 12V6c0-.465 0-.697-.051-.888a1.5 1.5 0 0 0-1.06-1.06C5.696 4 5.464 4 5 4s-.697 0-.888.051a1.5 1.5 0 0 0-1.06 1.06C3 5.304 3 5.536 3 6v6c0 .465 0 .697.051.888a1.5 1.5 0 0 0 1.06 1.06C4.304 14 4.536 14 5 14s.697 0 .888-.051a1.5 1.5 0 0 0 1.06-1.06C7 12.697 7 12.464 7 12"/></g>
    </g>
  </g>
</svg>